<svg xmlns="http://www.w3.org/2000/svg" viewBox="0 0 1201.76 1113.78">
<defs>
<style>
.cls-1{fill:#fff;}
</style>
</defs>
<g id="Layer_2" data-name="Layer 2">
<g id="body">
<g id="inner">
<path class="cls-1" d="M1190.57,575.25c-20.9-83.65-54.69-157.29-118-208-76.92-74.3-171.27-95.17-232.31-52-32.09-21.52-64-30.93-95.69-29l-43,4-216-3.5-65.36-6.9c-9.15,5.74-25.75,13.44-47.18,22.4-65.31-36.69-147-24.37-255.46,68C77.23,416,37.17,464,7.57,599.25c-18,84.55-.69,175,18,249,28.54,98.12,77.76,168.91,154,204q64.19,33.74,137,11c65.6,50.92,128.55,55,189,15,59.87,44.33,123.59,50.34,193,0,72.68,46,137.29,43.37,194-7,34.58,28.35,83.5,25.88,154-23,39.84-26,74.17-63,101-115C1195.21,835.12,1216.57,720.26,1190.57,575.25Zm-1024,443c-58.31-41.36-98.23-103.84-121-186-29.68-119.14-26.88-231.73,17-336,39.81-79.53,89.45-131,144-160,65.27-34.64,110.6-33.65,141-17-45.86,35.76-102.47,97.35-130,169-38.47,87.43-52.59,184.94-41,295,17.36,104.43,54.13,193.45,118,261C257,1052.89,214.79,1045.62,166.57,1018.25Zm226,58c-59.42-15.8-103.42-66.41-139-136-61.92-120.69-69.32-235.59-44-347C234.8,490.78,277.8,403,354.85,343.43c65.21-43.18,117.54-49.07,152.72-5.36-34.59,40.74-66.74,91-93,164.18-36.95,105.84-43.79,216.58-28,331,11.91,91.82,44.22,168.9,100,229C456.54,1081,425.4,1087.71,392.57,1076.25Zm248.55,5.62c-33.13,14.35-70.66,14.82-121.55-26.87-41.48-34.28-77.28-93-104-190.75-18.89-110.11-19.72-221.35,18-335,18.75-64.76,47.19-121,86-168,58.1-63.52,112.14-59.16,162.91,0,55.84,56.37,95,159.19,106.09,264,22.64,117.17,10.6,228.27-32,334C730.11,1017.7,692.07,1059.22,641.12,1081.87Zm79.45-22.62c44.5-56.71,91.16-104.89,103-291,2.58-88-8-175.13-35-261-18.48-62.85-49.89-118.23-91-168,25.55-32.81,66.68-38.05,130-4,113.71,82.55,162,203.39,168,349,1.07,143-31.76,245.58-84,325C855.88,1083.25,794.28,1114.7,720.57,1059.25Zm394-119c-28.89,47.19-62.89,79-100.66,99.43-39.71,28.58-74.6,33.64-104.34,13.57,59.94-71.22,95.41-167.09,109-285-.64-101.28,10.32-197.73-60-328-33.19-53.54-64.92-89.26-95.33-109,23.89-22.21,62.34-21.91,117.33,4,120.5,66.65,168.82,149.58,184,240C1190.31,716.34,1170.48,836.56,1114.57,940.25Z"/>
</g>
</g>
<g id="head">
<g id="inside">
<path class="cls-1" d="M896.57,161.25c.68-25.22-13.59-44.72-51-46-19.43-31.37-47.38-40.23-81-34-13.64-17.62-44-20-65-12-23.7,3.45-48.63,20.32-74,42-6.21-28.71-13.71-55.69-23.5-79.57C591.53,6.17,576.45-8.45,549.57,5.25l-52,19c-14,2.72-18.45,9.44-9,22,23.17,31.1,42,59.77,51,83q19.62,66.92-28,109c-2-27-9.81-54.23-34-82-28.9-35.81-73.81-51-150-26-4.81,58,7,100.52,35,128,12.85,15.94,37.35,25.77,63,35h46l36,14,39,14,71-13,65,23,62-45-57-56c-18.19-20.19-34.81-48.8-50-85,17.78-33.52,38.92-50.44,61.82-57.4,20.29-6.18,35.85-5.5,44.18,2.4-14.07,4.3-22.71,13.64-27,27-6.5,16.3-4.71,34,16,55,15.88,7.84,27.68,7.45,36,0,21.09-16.94,27.91-43.73,11.95-74.5,15.69-1.55,30.59,4,44.05,22.5-27.39,11.16-37.23,29-31,53,12.61,22.08,30.72,21.68,51,10,11.08-11.71,15.33-27.61,9-50,23.48,1.77,37.09,14.52,24,57-.1,3.24,6.91,3,10.23,0C893,185.4,898.1,177.12,896.57,161.25Zm-425,115c-111.91-19.22-129.12-70.53-110-134-14.84,68.33,30.31,107.47,124,123Zm25-21c-29.22-29.94-63.76-58-101-85,40.78,18.07,80.38,38.51,112,75Zm71,43-9,4c7.71-54.66,5.43-120-3-192C566.42,154.39,576.28,201.18,567.57,298.25Zm49-3c-11.83-30.34-29.07-125.12-45.66-215.48,26.82,86.45,47.58,170.82,52.66,215.48Zm73,16-5,4c-55.93-77.88-70.3-142.48-78.18-205C626.12,186.06,652.6,254.43,689.57,311.25Zm69-155.91c-4.14,6.46-9.19,7.69-16-1.09-18.57-21.88-7.5-38.12,16-52C770.07,118.21,774.3,135.28,758.57,155.34Zm71.82,14.91c-11,7.09-18.47,5.31-20.42-9.74,1.9-12.47,12-19.68,24.6-25.26C838,150,838.9,163.19,830.39,170.25Z" />
</g>
</g>
</g>
</svg>