<svg xmlns="http://www.w3.org/2000/svg" xmlns:xlink="http://www.w3.org/1999/xlink" viewBox="0 0 1201.76 1114.78">
<defs>
<style>
.cls-1{fill:#fff;}.cls-2{fill:url(#linear-gradient);}.cls-3{fill:url(#linear-gradient-2);}.cls-4{fill:url(#linear-gradient-3);}.cls-5{fill:url(#linear-gradient-4);}.cls-6{fill:url(#linear-gradient-5);}
</style>
<linearGradient id="linear-gradient" x1="147.35" y1="195.41" x2="244.71" y2="990.28" gradientUnits="userSpaceOnUse">
<stop offset="0.47" stop-color="#301934"/>
<stop offset="1" stop-color="#00e4fc"/>
</linearGradient>
<linearGradient id="linear-gradient-2" x1="338.34" y1="245.84" x2="378.55" y2="1097.57" xlink:href="#linear-gradient"/>
<linearGradient id="linear-gradient-3" x1="596.8" y1="292.98" x2="613.14" y2="1126.44" xlink:href="#linear-gradient"/>
<linearGradient id="linear-gradient-4" x1="806.95" y1="294.08" x2="872.48" y2="1028.71" xlink:href="#linear-gradient"/>
<linearGradient id="linear-gradient-5" x1="842.28" y1="257.67" x2="1112.58" y2="1019.2" xlink:href="#linear-gradient"/>
</defs>
<g id="Layer_2" data-name="Layer 2">
<g id="body">
<path id="outer" class="cls-1" d="M420.21,280.85c-9.15,5.74-25.75,13.44-47.18,22.4-65.31-36.69-147-24.37-255.46,68C77.23,417,37.17,465,7.57,600.25c-18,84.55-.69,175,18,249,28.54,98.12,77.76,168.91,154,204q64.19,33.74,137,11c65.6,50.92,128.55,55,189,15,59.87,44.33,123.59,50.34,193,0,72.68,46,137.29,43.37,194-7,34.58,28.35,83.5,25.88,154-23,39.84-26,74.17-63,101-115,47.64-98.13,69-213,43-358-20.9-83.65-54.69-157.29-118-208-76.92-74.3-171.27-95.17-232.31-52-32.09-21.52-64-30.93-95.69-29l-43,4-216-3.5Z"/>
<g id="inner">
<path class="cls-2" d="M347.57,319.25c-30.4-16.65-75.73-17.64-141,17-54.55,28.95-104.19,80.47-144,160-43.88,104.27-46.68,216.86-17,336,22.77,82.16,62.69,144.64,121,186,48.22,27.37,90.47,34.64,128,26-63.87-67.55-100.64-156.57-118-261-11.59-110.06,2.53-207.57,41-295C245.1,416.6,301.71,355,347.57,319.25Z"/>
<path class="cls-3" d="M507.57,338.07c-35.18-43.71-87.51-37.82-152.72,5.36C277.8,403,234.8,490.78,209.57,593.25c-25.32,111.41-17.92,226.31,44,347,35.58,69.59,79.58,120.2,139,136,32.83,11.46,64,4.71,94-14-55.78-60.1-88.09-137.18-100-229-15.79-114.42-8.95-225.16,28-331C440.83,429.09,473,378.81,507.57,338.07Z"/>
<path class="cls-4" d="M523.57,356.25c58.1-63.52,112.14-59.16,162.91,0,55.84,56.37,95,159.19,106.09,264,22.64,117.17,10.6,228.27-32,334-26.46,58.45-64.5,100-115.45,122.62-33.13,14.35-70.66,14.82-121.55-26.87-41.48-34.28-77.28-93-104-190.75-18.89-110.11-19.72-221.35,18-335C456.32,459.49,484.76,403.29,523.57,356.25Z"/>
<path class="cls-5" d="M697.57,339.25c25.55-32.81,66.68-38.05,130-4,113.71,82.55,162,203.39,168,349,1.07,143-31.76,245.58-84,325-55.69,74-117.29,105.45-191,50,44.5-56.71,91.16-104.89,103-291,2.58-88-8-175.13-35-261C770.09,444.4,738.68,389,697.57,339.25Z"/>
<path class="cls-6" d="M863.24,331.25c23.89-22.21,62.34-21.91,117.33,4,120.5,66.65,168.82,149.58,184,240,25.74,141.09,5.91,261.31-50,365-28.89,47.19-62.89,79-100.66,99.43-39.71,28.58-74.6,33.64-104.34,13.57,59.94-71.22,95.41-167.09,109-285-.64-101.28,10.32-197.73-60-328C925.38,386.71,893.65,351,863.24,331.25Z"/>
</g>
</g>
<g id="head">
<g id="inside">
<path class="cls-1" d="M896.57,161.25c.68-25.22-13.59-44.72-51-46-19.43-31.37-47.38-40.23-81-34-13.64-17.62-44-20-65-12-23.7,3.45-48.63,20.32-74,42-6.21-28.71-13.71-55.69-23.5-79.57C591.53,6.17,576.45-8.45,549.57,5.25l-52,19c-14,2.72-18.45,9.44-9,22,23.17,31.1,42,59.77,51,83q19.62,66.92-28,109c-2-27-9.81-54.23-34-82-28.9-35.81-73.81-51-150-26-4.81,58,7,100.52,35,128,12.85,15.94,37.35,25.77,63,35h46l36,14,39,14,71-13,65,23,62-45-57-56c-18.19-20.19-34.81-48.8-50-85,17.78-33.52,38.92-50.44,61.82-57.4,20.29-6.18,35.85-5.5,44.18,2.4-14.07,4.3-22.71,13.64-27,27-6.5,16.3-4.71,34,16,55,15.88,7.84,27.68,7.45,36,0,21.09-16.94,27.91-43.73,11.95-74.5,15.69-1.55,30.59,4,44.05,22.5-27.39,11.16-37.23,29-31,53,12.61,22.08,30.72,21.68,51,10,11.08-11.71,15.33-27.61,9-50,23.48,1.77,37.09,14.52,24,57-.1,3.24,6.91,3,10.23,0C893,185.4,898.1,177.12,896.57,161.25Zm-425,115c-111.91-19.22-129.12-70.53-110-134-14.84,68.33,30.31,107.47,124,123Zm25-21c-29.22-29.94-63.76-58-101-85,40.78,18.07,80.38,38.51,112,75Zm71,43-9,4c7.71-54.66,5.43-120-3-192C566.42,154.39,576.28,201.18,567.57,298.25Zm49-3c-11.83-30.34-29.07-125.12-45.66-215.48,26.82,86.45,47.58,170.82,52.66,215.48Zm73,16-5,4c-55.93-77.88-70.3-142.48-78.18-205C626.12,186.06,652.6,254.43,689.57,311.25Zm69-155.91c-4.14,6.46-9.19,7.69-16-1.09-18.57-21.88-7.5-38.12,16-52C770.07,118.21,774.3,135.28,758.57,155.34Zm71.82,14.91c-11,7.09-18.47,5.31-20.42-9.74,1.9-12.47,12-19.68,24.6-25.26C838,150,838.9,163.19,830.39,170.25Z"/>
</g>
</g>
</g>
</svg>